<?xml version="1.0" standalone="no"?><!DOCTYPE svg PUBLIC "-//W3C//DTD SVG 1.1//EN" "http://www.w3.org/Graphics/SVG/1.1/DTD/svg11.dtd"><svg class="icon" width="200px" height="200.00px" viewBox="0 0 1024 1024" version="1.1" xmlns="http://www.w3.org/2000/svg"><path d="M69.930667 549.333333l188.714666 326.826667a74.666667 74.666667 0 0 0 64.64 37.333333h377.408a74.666667 74.666667 0 0 0 64.661334-37.333333l188.714666-326.826667a74.666667 74.666667 0 0 0 0-74.666666L765.354667 147.84a74.666667 74.666667 0 0 0-64.64-37.333333H323.285333a74.666667 74.666667 0 0 0-64.661333 37.333333L69.930667 474.666667a74.666667 74.666667 0 0 0 0 74.666666z m55.424-42.666666l188.714666-326.826667a10.666667 10.666667 0 0 1 9.237334-5.333333h377.386666a10.666667 10.666667 0 0 1 9.237334 5.333333l188.714666 326.826667a10.666667 10.666667 0 0 1 0 10.666666l-188.714666 326.826667a10.666667 10.666667 0 0 1-9.237334 5.333333h-377.386666a10.666667 10.666667 0 0 1-9.237334-5.333333L125.354667 517.333333a10.666667 10.666667 0 0 1 0-10.666666z" fill="#333333" /><path d="M512 330.666667a181.333333 181.333333 0 1 0 0 362.666666 181.333333 181.333333 0 0 0 0-362.666666z m0 64a117.333333 117.333333 0 1 1 0 234.666666 117.333333 117.333333 0 0 1 0-234.666666z" fill="#333333" /></svg>