<?xml version="1.0" standalone="no"?><!DOCTYPE svg PUBLIC "-//W3C//DTD SVG 1.1//EN" "http://www.w3.org/Graphics/SVG/1.1/DTD/svg11.dtd"><svg class="icon" width="200px" height="200.00px" viewBox="0 0 1024 1024" version="1.1" xmlns="http://www.w3.org/2000/svg"><path d="M512 1024C229.2224 1024 0 794.7776 0 512S229.2224 0 512 0s512 229.2224 512 512-229.2224 512-512 512z m97.9456-540.9536c-0.2816-0.5632-0.4608-1.1264-0.768-1.6896-0.0768-0.1024-0.0768-0.2048-0.1792-0.384a38.9376 38.9376 0 0 0-37.8368-21.2992 38.7072 38.7072 0 0 0-35.6608 41.472c0.4864 5.4784 1.9968 10.496 4.352 15.0016 10.8288 24.2432 6.0928 53.76-13.824 73.6512l-104.32 103.9104a66.7136 66.7136 0 0 1-93.8752 0 65.8176 65.8176 0 0 1 0-93.3632l38.8864-38.656-0.2816-0.256c9.0112-7.7568 14.208-19.5328 13.2608-32.1792a38.784 38.784 0 0 0-41.728-35.456c-10.24 0.768-19.1488 5.4784-25.6 12.4416l-0.0768-0.0768-39.6544 39.424a142.7456 142.7456 0 0 0 0 202.7264 144.6912 144.6912 0 0 0 203.8784 0l104.6016-104.0128a142.7968 142.7968 0 0 0 28.8256-161.2544z m137.0368-197.8368a144.6912 144.6912 0 0 0-203.8784 0l-104.6016 104.0128a142.7968 142.7968 0 0 0-28.928 161.152l0.768 1.6896c0.0768 0.1024 0.0768 0.2048 0.1792 0.384 6.8352 13.6704 21.5296 22.528 37.8368 21.3248a38.7072 38.7072 0 0 0 35.6608-41.4976 39.3728 39.3728 0 0 0-4.352-15.0016 66.2016 66.2016 0 0 1 13.824-73.6512l104.4224-103.808a66.7136 66.7136 0 0 1 93.8752 0 65.8176 65.8176 0 0 1 0 93.3376l-38.8864 38.656 0.2816 0.3072a38.5024 38.5024 0 0 0-13.2608 32.1536 38.784 38.784 0 0 0 41.728 35.456c10.24-0.768 19.1488-5.4784 25.6-12.4416l0.0768 0.0768 39.6544-39.424a142.9248 142.9248 0 0 0 0-202.7264z" fill="#CFCFCF" /></svg>