<?xml version="1.0" standalone="no"?><!DOCTYPE svg PUBLIC "-//W3C//DTD SVG 1.1//EN" "http://www.w3.org/Graphics/SVG/1.1/DTD/svg11.dtd"><svg class="icon" width="200px" height="200.00px" viewBox="0 0 1024 1024" version="1.1" xmlns="http://www.w3.org/2000/svg"><path d="M512 512m-512 0a512 512 0 1 0 1024 0 512 512 0 1 0-1024 0Z" fill="#D8D8D8" /><path d="M213.333333 520.533333a66.730667 66.730667 0 1 0 66.730667-66.730666A66.730667 66.730667 0 0 0 213.333333 520.533333z m232.021334 0A66.730667 66.730667 0 1 0 512 453.973333a66.645333 66.645333 0 0 0-66.474667 66.56z m232.106666 0a66.645333 66.645333 0 1 0 66.645334-66.730666A66.645333 66.645333 0 0 0 677.632 520.533333z" fill="#FFFFFF" /></svg>