<?xml version="1.0" standalone="no"?><!DOCTYPE svg PUBLIC "-//W3C//DTD SVG 1.1//EN" "http://www.w3.org/Graphics/SVG/1.1/DTD/svg11.dtd"><svg class="icon" width="200px" height="200.00px" viewBox="0 0 1024 1024" version="1.1" xmlns="http://www.w3.org/2000/svg"><path d="M0 512c0 282.195349 229.804651 512 512 512s512-229.804651 512-512S794.195349 0 512 0 0 229.804651 0 512z" fill="#FF5A44" /><path d="M652.502326 482.232558c-22.623256-4.762791-11.906977-16.669767-11.906977-16.669767s21.432558-35.72093-4.762791-61.916279c-32.148837-32.148837-110.734884 4.762791-110.734884 4.76279-29.767442 9.525581-21.432558-4.762791-17.860465-27.386046 0-27.386047-9.525581-73.823256-89.302325-45.246512-79.776744 27.386047-147.646512 123.832558-147.646512 123.832558-47.627907 64.297674-41.674419 113.116279-41.674419 113.116279 11.906977 108.353488 127.404651 138.12093 216.706977 145.265117 94.065116 7.144186 222.660465-32.148837 260.762791-114.306977 39.293023-84.539535-32.148837-116.688372-53.581395-121.451163zM452.465116 685.84186c-94.065116 4.762791-170.269767-42.865116-170.269767-105.972093 0-63.106977 76.204651-113.116279 170.269767-116.688372 94.065116-4.762791 170.269767 34.530233 170.269768 96.446512 0 63.106977-76.204651 122.64186-170.269768 126.213953z m-19.051163-180.986046c-94.065116 10.716279-84.539535 100.018605-84.539534 100.018605s0 27.386047 25.004651 41.674418c54.772093 29.767442 111.925581 11.906977 140.502325-25.004651 29.767442-36.911628 14.288372-127.404651-80.967442-116.688372z m-23.813953 123.832558c-17.860465 2.381395-32.148837-8.334884-32.148837-22.623256s13.097674-29.767442 29.767442-32.148837c20.24186-2.381395 33.339535 9.525581 33.339535 25.004651 1.190698 14.288372-13.097674 27.386047-30.95814 29.767442z m55.962791-47.627907c-5.953488 4.762791-13.097674 3.572093-16.669768-1.190698-3.572093-4.762791-2.381395-14.288372 3.572093-17.860465 7.144186-4.762791 14.288372-3.572093 17.860465 1.190698 3.572093 5.953488 0 13.097674-4.76279 17.860465z m232.186046-136.930232c7.144186 0 14.288372-5.953488 14.288372-13.097675v-1.190698c10.716279-103.590698-84.539535-85.730233-84.539535-85.730232-8.334884 0-15.47907 7.144186-15.479069 15.47907 0 8.334884 7.144186 15.47907 15.479069 15.479069 69.060465-15.47907 53.581395 54.772093 53.581396 54.772093 1.190698 7.144186 8.334884 14.288372 16.669767 14.288373z m-10.716279-179.795349c-33.339535-8.334884-67.869767-1.190698-77.395349 1.190697H607.255814c-9.525581 2.381395-16.669767 11.906977-16.669767 21.432559 0 11.906977 9.525581 22.623256 22.623255 22.623255 0 0 11.906977-1.190698 20.241861-4.76279 8.334884-3.572093 77.395349-2.381395 111.925581 54.772093 19.051163 41.674419 8.334884 70.251163 7.144186 75.013953 0 0-4.762791 10.716279-4.76279 21.432558 0 11.906977 9.525581 20.24186 22.623255 20.241861 9.525581 0 19.051163 0 21.432558-19.051163 36.911628-129.786047-45.246512-179.795349-104.781395-192.893023z" fill="#FFFFFF" /></svg>