<?xml version="1.0" standalone="no"?><!DOCTYPE svg PUBLIC "-//W3C//DTD SVG 1.1//EN" "http://www.w3.org/Graphics/SVG/1.1/DTD/svg11.dtd"><svg class="icon" width="200px" height="200.00px" viewBox="0 0 1024 1024" version="1.1" xmlns="http://www.w3.org/2000/svg"><path d="M512 927c-55.9 0-110.1-11-161.2-32.5-49.3-20.9-93.6-50.7-131.6-88.7s-67.9-82.3-88.7-131.6C109 623.1 98 568.9 98 513s11-110.1 32.5-161.2c20.9-49.3 50.7-93.6 88.7-131.6s82.3-67.9 131.6-88.7C401.9 110 456.1 99 512 99s110.1 11 161.2 32.5c49.3 20.9 93.6 50.7 131.6 88.7s67.9 82.3 88.7 131.6C915 402.9 926 457.1 926 513s-11 110.1-32.5 161.2c-20.9 49.3-50.7 93.6-88.7 131.6s-82.3 67.9-131.6 88.7C622.1 916 567.9 927 512 927z m0-763.1c-192.5 0-349.1 156.6-349.1 349.1 0 192.5 156.6 349.1 349.1 349.1 192.5 0 349.1-156.6 349.1-349.1 0-192.5-156.6-349.1-349.1-349.1z" fill="#666666" /><path d="M511 512m-257 0a257 257 0 1 0 514 0 257 257 0 1 0-514 0Z" fill="#666666" /></svg>