<?xml version="1.0" standalone="no"?><!DOCTYPE svg PUBLIC "-//W3C//DTD SVG 1.1//EN" "http://www.w3.org/Graphics/SVG/1.1/DTD/svg11.dtd"><svg class="icon" width="200px" height="200.00px" viewBox="0 0 1024 1024" version="1.1" xmlns="http://www.w3.org/2000/svg"><path d="M512 64a448 448 0 1 1 0 896A448 448 0 0 1 512 64z m122.24 643.84H389.76A474.048 474.048 0 0 0 512 870.272a474.048 474.048 0 0 0 122.24-162.56z m-327.68 0H196.608a372.16 372.16 0 0 0 203.456 158.208l2.944 3.52A549.632 549.632 0 0 1 306.56 707.84z m520.832 0H717.44a549.632 549.632 0 0 1-96.448 161.728l2.944-3.52a372.16 372.16 0 0 0 203.52-158.272zM283.584 391.168H160.896A370.688 370.688 0 0 0 140.8 512c0 41.6 6.848 81.664 19.52 119.04h123.136a553.152 553.152 0 0 1 0.128-239.808z m377.856 0h-298.88a475.84 475.84 0 0 0-0.064 239.808h299.008a475.84 475.84 0 0 0-0.064-239.808z m201.664 0H740.48a553.152 553.152 0 0 1 0.128 239.808h123.136c12.672-37.376 19.52-77.44 19.52-119.04 0-42.24-7.04-82.88-20.096-120.768zM397.952 158.72l-8.384 2.816a372.288 372.288 0 0 0-191.872 152.96H306.56A546.752 546.752 0 0 1 397.952 158.72zM512 152l0.64-0.512a472 472 0 0 0-122.752 162.944h244.224a472 472 0 0 0-122.688-162.944L512 152z m114.048 6.656l9.408 11.52a546.752 546.752 0 0 1 81.92 144.256h108.928a372.16 372.16 0 0 0-200.32-155.776z" fill="#666666" /></svg>